<svg width="70" height="80" viewBox="0 0 70 80">
    <path fill="#F77F00" d="M5,25 L22.5,25 C23.881835,25 25,23.881835 25,22.5 L25,5 L50,5 L50,20 L55,20 L55,2.5 C55,1.118165 53.881835,0 52.5,0 L22.5,0 C21.83594,0 21.20117,0.263672 20.73242,0.73242 L0.73242,20.73242 C0.26367,21.2011705 0,21.835935 0,22.5 L0,62.5 C0,63.881835 1.118165,65 2.5,65 L35,65 L35,60 L5,60 L5,25 Z M8.535155,20 L20.000005,8.53515 L20.000005,20 L8.535155,20 Z" id="Shape"></path>
    <path fill="#F77F00" d="M70.00003,42.5 C70.00003,32.85155 62.14845,25 52.5,25 C42.85155,25 35,32.85155 35,42.5 C35,47.249755 36.91681,51.5521 40,54.70855 L40,77.5 C40,78.3667 40.449219,79.16992 41.186525,79.626465 C41.92139,80.0854495 42.839355,80.1220705 43.618165,79.7363285 L52.500015,75.2954085 L61.381865,79.7363285 C61.735869,79.91211 62.11673,80 62.50003,80 C62.956573,80 63.413115,79.875489 63.813505,79.6264655 C64.55081,79.1699225 65.00003,78.3667005 65.00003,77.5 L65.00003,54.7085505 C68.08322,51.5521155 70.00003,47.2497505 70.00003,42.5 L70.00003,42.5 Z M52.5,30 C59.3921,30 65,35.6079 65,42.5 C65,49.3921 59.3921,55 52.5,55 C45.6079,55 40,49.3921 40,42.5 C40,35.6079 45.6079,30 52.5,30 Z M53.618165,70.26365 C52.91504,69.9120875 52.08496,69.9120875 51.381835,70.26365 L44.999985,73.45457 L44.999985,58.24462 C47.28209,59.33715 49.805895,59.99999 52.499985,59.99999 C55.194075,59.99999 57.717885,59.33715 59.999985,58.24462 L59.999985,73.45457 L53.618135,70.26365 L53.618165,70.26365 Z" id="Shape"></path>
</svg>