<svg width="14px" height="14px" viewBox="0 0 14 14" version="1.1" xmlns="http://www.w3.org/2000/svg" xmlns:xlink="http://www.w3.org/1999/xlink">
    <title>Icon_Noun_New_Tab Copy 2</title>
    <g id="Style-Guide" stroke="none" stroke-width="1" fill="none" fill-rule="evenodd">
        <g id="Primary-Navigation-Dropdown-R2" transform="translate(-1223.000000, -207.000000)" fill="#6783A8" fill-rule="nonzero">
            <g id="Icon_Noun_New-Window_299638-Copy-2" transform="translate(1223.000000, 207.000000)">
                <path d="M11.5129565,1.4 L6.39870175,6.51425474 C6.09848334,6.81447316 6.09804857,7.30244498 6.39875227,7.60314868 C6.69884411,7.90324052 7.1869704,7.90387502 7.48764622,7.60319921 L12.6,2.49084542 L12.6,4.20055319 C12.6,4.58602895 12.9134007,4.9 13.3,4.9 C13.6858127,4.9 14,4.586847 14,4.20055319 L14,0.699446808 C14,0.506800858 13.9217245,0.332014037 13.795156,0.205351291 C13.6683947,0.0784717833 13.4936078,0 13.3005532,0 L9.79944681,0 C9.41397105,0 9.1,0.313400675 9.1,0.7 C9.1,1.08581267 9.413153,1.4 9.79944681,1.4 L11.5129565,1.4 L11.5129565,1.4 Z M14,8.4 L14,5.07240137 L14,12.2551973 C14,13.2188252 13.3057378,14 12.4482639,14 L1.55173611,14 C0.69473593,14 0,13.2173005 0,12.2551973 L0,1.74480275 C0,0.7811748 0.69426217,0 1.55173611,0 L9.02413194,0 L5.6,0 C5.98659933,0 6.3,0.313400675 6.3,0.7 C6.3,1.08659933 5.98659933,1.4 5.6,1.4 L1.79861393,1.4 C1.57592526,1.4 1.4,1.60907892 1.4,1.86699083 L1.4,12.1330092 C1.4,12.3862661 1.57846554,12.6 1.79861393,12.6 L12.2013861,12.6 C12.4240747,12.6 12.6,12.3909211 12.6,12.1330092 L12.6,8.4 C12.6,8.01340067 12.9134007,7.7 13.3,7.7 C13.6865993,7.7 14,8.01340067 14,8.4 L14,8.4 Z" id="Shape"></path>
            </g>
        </g>
    </g>
</svg>