<svg width="80" height="80" viewBox="0 0 80 80">
    <path fill="#F77F00" d="M39.6296296,-7.17183322e-14 C17.7782017,-7.17183322e-14 4.26325641e-14,17.9443531 4.26325641e-14,40 C4.26325641e-14,62.0556469 17.7782017,80 39.6296296,80 C61.4810576,80 79.2592593,62.0556469 79.2592593,40 C79.2592593,17.9443531 61.4812088,-7.17183322e-14 39.6296296,-7.17183322e-14 Z M46.4075048,5.68112713 C47.1220316,6.55844527 48.4608245,8.483845 48.4608245,10.6518845 C48.4608245,11.1524243 48.388253,11.3599652 48.4003482,11.3697318 C48.3253577,11.4234483 48.1100622,11.5259979 47.9649193,11.5943643 C47.1474316,11.9801463 45.2292763,12.8858487 45.2292763,15.5445087 C45.2292763,17.8784283 47.2006507,19.531278 49.1089786,21.1328529 C49.7524459,21.6724592 50.8166766,22.5659534 51.3583925,23.1934594 C50.6205824,23.6060996 49.4450753,24.1284617 48.5163114,24.5435435 C43.560132,26.7579745 36.1755289,30.0537546 35.5757558,37.4000923 C33.9212769,39.6267316 33.9212769,42.2145836 33.9212769,43.2619021 C33.9212769,44.3498133 34.2133771,45.3441784 34.6294537,46.2626995 C30.8323015,43.4062651 26.0025174,39.2067664 23.6776594,36.6700367 C21.1016737,33.8624355 21.1016737,33.1348215 21.1065118,26.1939516 L21.1065118,25.3273157 C21.1065118,20.7698089 20.7478877,15.2486104 18.691393,12.1669331 C24.517372,7.69091665 31.7595535,5.00020976 39.6297808,5.00020976 C41.9496496,5.00020976 44.2140314,5.24056051 46.4075048,5.68112713 Z M46.8015075,74.2378404 C46.535412,74.2946089 46.2635713,74.3321494 45.9955103,74.3828138 C46.4551298,71.9979246 46.9514886,69.106544 46.9514886,67.7173934 C46.9514886,65.7324782 45.3453907,63.8942152 43.311121,61.5650263 C42.3170428,60.4249247 40.6528877,58.5205843 40.4908114,57.9345865 C40.4908114,57.6049627 40.8198021,56.9336594 41.0834786,56.3916114 C41.6211124,55.2859982 42.2988999,53.7927719 41.8686114,52.1588451 C42.3415356,52.0321841 42.7889087,51.7956485 43.1272732,51.4087984 C43.3425687,51.1621909 43.9568561,50.6518845 44.0729705,50.5983206 C44.7672378,50.844928 47.0650327,52.5978857 48.5840448,53.7599622 C52.6814616,56.8874205 55.2987223,58.8039692 57.3981551,58.8039692 C57.8505174,58.8064109 58.075489,58.877219 58.0537176,58.8528024 C58.0561367,58.8528024 58.1528986,59.0261601 58.1819272,59.2605592 C57.657447,61.376103 50.9769386,71.9748814 46.8015075,74.2378404 Z M4.9537604,40 C4.9537604,30.460138 8.76421739,21.8090395 14.9173729,15.4894188 C15.4232567,16.5837393 16.1527514,19.1973813 16.1527514,25.3270105 L16.1527514,26.1912047 C16.1479133,33.393332 16.1454943,35.8201872 20.0421299,40.0682138 C23.1430494,43.4471629 32.1990646,51.3524876 36.8867295,53.6619906 C36.8044819,53.8402317 36.712558,54.030681 36.6375674,54.1845054 C36.1465003,55.1903158 35.537051,56.4427336 35.537051,57.9345865 C35.537051,60.2245562 37.5084253,62.4804954 39.5933439,64.8707257 C40.4858221,65.8936277 41.8356518,67.4366027 41.997577,67.7173934 C41.997577,68.7781411 41.4027931,72.1143611 40.8335605,74.9384435 C40.4304863,74.9524831 40.03603,75.0000954 39.6296296,75.0000954 C20.5091577,75.0000954 4.9537604,59.2994731 4.9537604,40 L4.9537604,40 Z M57.6864756,69.8234758 C60.7486903,65.5333305 63.1065079,61.1006535 63.1065079,59.5656138 C63.1040888,56.013307 60.9295142,53.618346 57.5650695,53.8185619 C56.5758294,53.5914878 53.4434623,51.1989684 51.573688,49.7707512 C47.8318715,46.9143169 46.1096593,45.6521324 44.4745328,45.6521324 C43.1393685,45.6521324 42.0049853,46.1160474 41.1462227,46.6481762 C40.0457062,45.7204989 38.8750373,44.406887 38.8750373,43.2619021 C38.8750373,42.4856076 38.8750373,41.0377045 39.7675155,40.1368854 C40.229554,39.6680872 40.4908114,39.0309671 40.4908114,38.3692778 C40.4908114,33.9527768 45.0333333,31.5675824 50.5215525,29.1163107 C53.9417865,27.5904272 56.6435628,26.3844009 56.6435628,23.6964409 C56.6435628,20.9523228 54.3239964,19.0064742 52.2752124,17.2876998 C51.7720501,16.865293 51.0343911,16.2477062 50.5796097,15.8668076 C51.7018976,15.2661598 53.4144337,13.9722338 53.4144337,10.6518845 C53.4144337,9.60090341 53.2254454,8.62149346 52.9638856,7.69930985 C65.4833755,12.9844306 74.30565,25.468474 74.30565,40 C74.30565,52.6178767 67.6342131,63.6640889 57.6864756,69.8234758 Z" id="Shape"></path>
</svg>