<svg width="32px" height="63px" viewBox="0 0 32 63" version="1.1"
    xmlns="http://www.w3.org/2000/svg"
    xmlns:xlink="http://www.w3.org/1999/xlink">
    <title>lamp</title>
    <g id="Pages" stroke="none" stroke-width="1" fill="none" fill-rule="evenodd">
        <g id="Homepage-B-R5---Feb-26" transform="translate(-920.000000, -1407.000000)" fill="#F77F00" fill-rule="nonzero">
            <g id="Group-33" transform="translate(240.000000, 1405.000000)">
                <g id="lamp" transform="translate(680.000000, 2.000000)">
                    <path d="M21.9633676,5.24991813 C20.4398855,5.24991813 19.0675266,4.41553727 18.3852845,3.07358805 L17.1925485,0.725484537 C16.9658012,0.28042399 16.4824318,0 15.9991875,0 C15.5163182,0 15.0335738,0.280916177 14.8072015,0.725484537 L13.6144655,3.07358805 C12.9322235,4.41553727 11.5623645,5.24991813 10.0363824,5.24991813 C4.50257224,5.24991813 0,9.68218961 0,15.1308283 L0,17.0624181 L0,43.3123771 L0,44.6249181 C0,47.5203341 2.39322195,49.8749591 5.3333125,49.8749591 L10.666625,49.8749591 L10.666625,61.6874591 C10.666625,62.4129435 11.262993,63 11.9999844,63 C12.7369757,63 13.3333437,62.4129435 13.3333437,61.6874591 L13.3333437,49.8749591 L18.6666563,49.8749591 L18.6666563,61.6874591 C18.6666563,62.4129435 19.2630243,63 20.0000156,63 C20.737007,63 21.333375,62.4129435 21.333375,61.6874591 L21.333375,49.8749591 L26.6666875,49.8749591 C29.606778,49.8749591 32,47.5204572 32,44.6249181 L32,43.3123771 L32,17.0624181 L32,15.1308283 C32,9.68218961 27.4971778,5.24991813 21.9633676,5.24991813 Z M2.66671875,18.3748361 L18.6665313,18.3748361 L18.6665313,23.6248771 L11.9999844,23.6248771 C11.262993,23.6248771 10.666625,24.2119338 10.666625,24.9374181 C10.666625,25.6629025 11.262993,26.2499591 11.9999844,26.2499591 L18.6665313,26.2499591 L18.6665313,28.8749181 L6.66667187,28.8749181 C5.92968051,28.8749181 5.3333125,29.4619748 5.3333125,30.1874591 L5.3333125,38.0624591 C5.3333125,38.7879435 5.92968051,39.3750002 6.66667187,39.3750002 L10.666625,39.3750002 L10.666625,41.9999591 L2.66671875,41.9999591 L2.66671875,18.3748361 L2.66671875,18.3748361 Z M8.00003125,36.7499181 L8.00003125,31.4998771 L23.9998438,31.4998771 L23.9998438,36.7499181 L8.00003125,36.7499181 L8.00003125,36.7499181 Z M18.6665313,39.3748771 L18.6665313,41.9998361 L13.3332188,41.9998361 L13.3332188,39.3748771 L18.6665313,39.3748771 Z M26.6664375,47.2498771 L5.3334375,47.2498771 C3.86207974,47.2498771 2.66684375,46.0719494 2.66684375,44.6249181 L29.3331563,44.6249181 C29.3331563,46.0719494 28.1377953,47.2498771 26.6664375,47.2498771 Z M29.3331563,41.9998361 L21.33325,41.9998361 L21.33325,39.3748771 L25.3332031,39.3748771 C26.0701945,39.3748771 26.6665625,38.7878205 26.6665625,38.0623361 L26.6665625,30.1873361 C26.6665625,29.4618517 26.0701945,28.8747951 25.3332031,28.8747951 L21.33325,28.8747951 L21.33325,18.3748361 L29.3331563,18.3748361 L29.3331563,41.9998361 Z M29.3331563,15.7498771 L2.66671875,15.7498771 L2.66671875,15.1308283 C2.66671875,11.1305744 5.97392999,7.87487711 10.0363824,7.87487711 C12.5779776,7.87487711 14.8618258,6.4854318 15.9998125,4.24757829 C17.1379242,6.4854318 19.4217724,7.87487711 21.9633676,7.87487711 C26.02582,7.87487711 29.3331563,11.1304513 29.3331563,15.1308283 L29.3331563,15.7498771 L29.3331563,15.7498771 Z" id="Shape"></path>
                </g>
            </g>
        </g>
    </g>
</svg>