<svg width="47px" height="63px" viewBox="0 0 47 63" version="1.1"
    xmlns="http://www.w3.org/2000/svg"
    xmlns:xlink="http://www.w3.org/1999/xlink">
    <title>laser</title>
    <g id="Pages" stroke="none" stroke-width="1" fill="none" fill-rule="evenodd">
        <g id="Homepage-B-R5---Feb-26" transform="translate(-591.000000, -1405.000000)" fill="#F77F00" fill-rule="nonzero">
            <g id="Group-33" transform="translate(240.000000, 1405.000000)">
                <g id="laser" transform="translate(351.000000, 0.000000)">
                    <path d="M53.687218,30.1943458 L22.2238858,30.1943458 L29.4650431,27.2097312 C30.1341694,26.9343413 30.4519982,26.1693694 30.1751438,25.5037825 C29.8957055,24.8357478 29.1240815,24.5220481 28.4601232,24.797438 L21.2179816,27.7825422 L32.3309167,16.7294929 C32.843651,16.2194708 32.843651,15.3933011 32.3309167,14.8834013 C31.8181824,14.3733792 30.9876192,14.3733792 30.4750079,14.8834013 L19.3631802,25.9352267 L22.3615748,18.7312715 C22.6384291,18.0644608 22.3206003,17.3007128 21.651474,17.0253229 C20.9823477,16.7511569 20.2158917,17.0674269 19.9364534,17.7316674 L16.9371975,24.9377033 L16.9371975,9.30559295 C16.9374436,8.583949 16.3503893,8 15.6249077,8 C14.8994262,8 14.3123718,8.583949 14.3123718,9.30559295 L14.3123718,24.9378257 L11.313116,17.7317898 C11.0362616,17.0675493 10.2748505,16.7526256 9.59809532,17.0254452 C8.92896903,17.3008352 8.61114019,18.0645832 8.88799458,18.7313939 L11.8863891,25.9353491 L0.77480752,14.8835237 C0.262073195,14.3735016 -0.568489967,14.3735016 -1.08110125,14.8835237 C-1.59383557,15.3935459 -1.59383557,16.2197156 -1.08110125,16.7296153 L10.0318339,27.7826646 L2.78969223,24.7975604 C2.12314991,24.5221705 1.35410994,24.8358702 1.07467158,25.5039049 C0.797817196,26.1694917 1.11564603,26.9344637 1.78477233,27.2098536 L9.02592959,30.1944682 L-6.68746411,30.1944682 C-7.41294565,30.1943458 -8,30.7782948 -8,31.4999388 C-8,32.2215828 -7.41294565,32.8055318 -6.68746411,32.8055318 L9.02592959,32.8055318 L1.78477233,35.7901464 C1.11564603,36.0655363 0.797817196,36.8305083 1.07467158,37.4960951 C1.28483482,37.9984063 1.7719755,38.3018247 2.28717075,38.3018247 C2.45635955,38.3018247 2.62554834,38.2700019 2.78956918,38.2023172 L10.0317108,35.217213 L-1.08122429,46.2702623 C-1.59395862,46.7802844 -1.59395862,47.6064541 -1.08122429,48.1163539 C-0.824918653,48.3713037 -0.489001996,48.4988398 -0.153208386,48.4988398 C0.182585224,48.4988398 0.518378834,48.3713037 0.77480752,48.1163539 L11.8866352,37.0645285 L8.88824067,44.2684837 C8.61138628,44.9352944 8.92921512,45.6990425 9.59834141,45.9744324 C9.76236226,46.0419947 9.93413502,46.0739399 10.1007398,46.0739399 C10.6160581,46.0739399 11.1030758,45.7705214 11.313239,45.2682102 L14.3124949,38.0621743 L14.3124949,53.694407 C14.3124949,54.416051 14.8995492,55 15.6250308,55 C16.3505123,55 16.9375667,54.416051 16.9375667,53.694407 L16.9375667,38.0621743 L19.9368225,45.2682102 C20.1469858,45.7705214 20.6341264,46.0739399 21.1493217,46.0739399 C21.3159265,46.0739399 21.4876993,46.0421171 21.6517201,45.9744324 C22.3208464,45.6990425 22.6386752,44.9352944 22.3618209,44.2684837 L19.3634263,37.0645285 L30.475254,48.1163539 C30.7315596,48.3713037 31.0674763,48.4988398 31.4032699,48.4988398 C31.7390635,48.4988398 32.0748571,48.3713037 32.3312858,48.1163539 C32.8440201,47.6063318 32.8440201,46.780162 32.3312858,46.2702623 L21.2183507,35.217213 L28.4604923,38.2023172 C28.6245132,38.2698795 28.793702,38.3018247 28.9628908,38.3018247 C29.4782091,38.3018247 29.9652267,37.9984063 30.1753899,37.4960951 C30.4522443,36.8305083 30.1344155,36.0655363 29.4652892,35.7901464 L22.2241319,32.8055318 L53.6874641,32.8055318 C54.4129457,32.8055318 55,32.2215828 55,31.4999388 C55,30.7782948 54.4126996,30.1943458 53.687218,30.1943458 Z M15.6249077,34.1110023 C16.5844235,34.1110023 17.3885317,33.5713605 17.8465104,32.8054094 L19.3206062,32.8054094 C18.7769872,34.3218898 17.333776,35.4165953 15.6249077,35.4165953 C13.453631,35.4165953 11.6874231,33.6597301 11.6874231,31.4999388 C11.6874231,29.3401476 13.453631,27.5832823 15.6249077,27.5832823 C17.333776,27.5832823 18.7769872,28.6779878 19.3206062,30.1943458 L17.8465104,30.1943458 C17.3886547,29.4283947 16.5844235,28.8887529 15.6249077,28.8887529 C14.1765286,28.8887529 12.999959,30.0604452 12.999959,31.4998164 C12.999959,32.9391877 14.1765286,34.1110023 15.6249077,34.1110023 Z" id="Shape" transform="translate(23.500000, 31.500000) rotate(-90.000000) translate(-23.500000, -31.500000) "></path>
                </g>
            </g>
        </g>
    </g>
</svg>