<svg width="45px" height="60px" viewBox="0 0 45 60" version="1.1"
    xmlns="http://www.w3.org/2000/svg"
    xmlns:xlink="http://www.w3.org/1999/xlink">
    <title>microscope</title>
    <g id="Pages" stroke="none" stroke-width="1" fill="none" fill-rule="evenodd">
        <g id="Homepage-B-R5---Feb-26" transform="translate(-240.000000, -1410.000000)" fill="#F77F00" fill-rule="nonzero">
            <g id="Group-33" transform="translate(240.000000, 1405.000000)">
                <g id="microscope" transform="translate(0.000000, 5.000000)">
                    <path d="M41.9816094,50.4135374 C43.92387,47.2668386 45,43.7201814 45,39.9999706 C45,31.3337756 39.5314596,23.816128 31.3623402,21.0763016 C30.2632415,19.3006879 28.4589103,18.0186648 26.3303221,17.6345266 L27.4998503,15.2954789 C27.8086385,14.6777875 27.5584439,13.9270891 26.9407502,13.618302 L28.0589504,11.3820272 C28.6766441,11.6884705 29.4248843,11.4406205 29.7362507,10.8229292 L32.3680407,5.55925161 C32.676829,4.94156021 32.4266343,4.19086185 31.8089406,3.88195756 L24.3089601,0.131981348 C23.6900946,-0.175633888 22.9417371,0.0722161025 22.6316598,0.691079364 L19.9998698,5.95475691 C19.6910815,6.5724483 19.9412762,7.32314667 20.5589699,7.63205096 L19.4407697,9.86832583 C18.824365,9.56188247 18.0723748,9.80973246 17.7634694,10.4274238 L7.63169888,30.6910062 C7.32291062,31.3086976 7.57310528,32.059396 8.19079898,32.3683003 L15.6907795,36.1182765 C15.870193,36.2073384 16.0606222,36.2501116 16.2485905,36.2501116 C16.7076127,36.2501116 17.1482366,35.997457 17.3679626,35.5591785 L19.90987,30.4752654 C21.249554,31.7213122 23.0300963,32.5001354 24.9997786,32.5001354 C26.6408681,32.5001354 28.1477783,31.955217 29.3838688,31.057918 C32.8080786,32.7323995 34.9997135,36.15437 34.9997135,40.0000878 C34.9997135,45.5139591 30.5136705,49.9999853 24.9997786,49.9999853 L14.9998438,49.9999853 L14.9998438,47.5000402 L18.749834,47.5000402 C19.4407697,47.5000402 19.9998698,46.9409422 19.9998698,46.2500091 C19.9998698,45.559076 19.4407697,44.999978 18.749834,44.999978 L13.7498079,44.999978 L6.24982747,44.999978 L1.25003581,44.999978 C0.559100107,44.999978 0,45.559076 0,46.2500091 C0,46.9409422 0.559100107,47.5000402 1.25003581,47.5000402 L5.00002604,47.5000402 L5.00002604,49.9999853 C2.24249416,49.9999853 0,52.2423539 0,55 L0,58.7499689 C0,59.440902 0.559100107,60 1.25003581,60 L43.7499642,60 C44.4408999,60 45,59.440902 45,58.7499689 L45,55 C45,52.9467635 43.7548861,51.1827512 41.9816094,50.4135374 Z M17.5000326,25.0000658 C17.5000326,26.1521288 17.7824537,27.2313016 18.2485072,28.2075845 L15.6910138,33.3227864 L10.4273166,30.6910062 L19.4410041,12.6638159 C20.0598696,12.9702593 20.8082271,12.7224093 21.1183044,12.1047179 L23.3545876,7.63205096 C23.6633759,7.01435956 23.4131812,6.2636612 22.7954875,5.95475691 L24.3091945,2.92747143 L29.5728917,5.55925161 L28.0591847,8.58653709 C27.441491,8.28138278 26.6907899,8.52794371 26.3818844,9.14563511 L24.1456012,13.618302 C23.8368129,14.2359934 24.0870076,14.9866918 24.7047013,15.2954789 L23.5279075,17.6488234 C20.0952602,18.3351862 17.5000326,21.3684482 17.5000326,25.0000658 Z M25.000013,29.9999559 C22.2424811,29.9999559 19.999987,27.7575873 19.999987,24.9999412 C19.999987,22.2423098 22.242364,19.9999412 25.000013,19.9999412 C27.7576621,19.9999412 30.0000391,22.2423098 30.0000391,24.9999412 C30.0000391,27.7575873 27.7575449,29.9999559 25.000013,29.9999559 Z M37.5000195,39.9999706 C37.5000195,35.4685931 35.0789321,31.3922518 31.2207781,29.1845705 C32.0279635,27.9884453 32.5001107,26.5484544 32.5001107,25.0000658 C32.5001107,24.7167082 32.4472593,24.4476474 32.416439,24.1723757 C38.5268137,27.0150921 42.5000456,33.089702 42.5000456,39.9999706 C42.5000456,43.6061587 41.3711813,47.0404338 39.2923977,49.9998681 L32.4227671,49.9998681 C35.4856888,47.7192967 37.5000195,44.1031477 37.5000195,39.9999706 Z M7.50009766,47.499923 L12.5001237,47.499923 L12.5001237,49.9998681 L7.50009766,49.9998681 L7.50009766,47.499923 Z M42.4999284,57.4998205 L2.50007161,57.4998205 L2.50007161,54.9998755 C2.50007161,53.6217592 3.62190463,52.4999304 5.00002604,52.4999304 L6.25006185,52.4999304 L13.7500423,52.4999304 L39.999974,52.4999304 C41.3780954,52.4999304 42.4999284,53.6217592 42.4999284,54.9998755 L42.4999284,57.4998205 L42.4999284,57.4998205 Z" id="Shape"></path>
                </g>
            </g>
        </g>
    </g>
</svg>