<svg  xmlns="http://www.w3.org/2000/svg" viewBox="0 0 245 48">
<defs>
    <style>.cls-1{fill:#bcbcbc;}.cls-2{fill:#f77f00;}</style>
</defs>
<path class="cls-1" d="M29,4.73c3.22,2.9,5.07,7.6,5.07,15,0,7.61-1.8,12.26-5.07,15.16-3,2.69-7.24,3.69-11.35,3.69A16.77,16.77,0,0,1,6.41,34.88C3.14,32,1.34,27.27,1.34,19.77S3.08,7.58,6.41,4.67C9.42,2,13.64,1,17.76,1A16.81,16.81,0,0,1,29,4.73m1,15.15c0-10-3.85-15.42-12.3-15.42C9,4.46,5.3,9.27,5.3,19.72c0,10,3.91,15.42,12.36,15.42,8.76,0,12.4-4.81,12.4-15.26"></path><path class="cls-1" d="M37.82,47.65V11.22h3.07l.16,1.37c2.9-.95,6.23-2.11,9.34-2.11a10.17,10.17,0,0,1,7.45,2.85c2.48,2.54,3.43,6.29,3.43,11.2,0,5.22-1.8,9.34-4.6,11.56a13,13,0,0,1-8.34,2.53,19.62,19.62,0,0,1-6.86-1.26V47.65ZM49.6,13.7a23.41,23.41,0,0,0-8.13,1.9V34.14a15.3,15.3,0,0,0,6.44,1.47c6.18,0,9.61-3.32,9.61-11S54.25,13.7,49.6,13.7"></path><path class="cls-1" d="M72.51,38.62c-3.06,0-6-1.16-7-4.8a25.63,25.63,0,0,1-.68-6.92V14.34h-4.6V11.22h4.6l.47-8.08H68.4v8.08h8.08v3.12H68.4V26.53A22.81,22.81,0,0,0,68.82,32c.58,2.54,2,3.44,4.38,3.44a21.17,21.17,0,0,0,3.85-.53V38a23.56,23.56,0,0,1-4.54.63"></path><path class="cls-1" d="M79.64,0h4.17V4.3H79.64Zm3.64,37.92H79.91V11.22h3.64V37.89Z"></path><path class="cls-1" d="M98.07,38.62a10.19,10.19,0,0,1-7.55-3C88,33,87,29.28,87,24.58s1.27-9.08,4.6-11.67c2.64-2,5.59-2.43,8.66-2.43,1.95,0,4,.16,6.12.37v3.27a46.27,46.27,0,0,0-6.07-.42c-6.76,0-9.56,3.49-9.56,10.93,0,6.6,2.59,10.77,8.13,10.77a29.36,29.36,0,0,0,7.92-1.58V37a32.55,32.55,0,0,1-8.76,1.63"></path><path class="cls-2" d="M127.27,36.67c-2.54,1.53-5.81,1.95-9.45,1.95a81.21,81.21,0,0,1-9-.47V34.66a78.09,78.09,0,0,0,8.77.59,18.09,18.09,0,0,0,6.86-1,6,6,0,0,0,3.27-5.75c0-3.44-1.74-5.23-5.07-6.34-2-.69-4.17-1.27-6.17-1.95-4.7-1.43-7.71-4-7.71-9.4a9.14,9.14,0,0,1,4-7.92c2.59-1.69,5.54-1.9,8.66-1.9a82.52,82.52,0,0,1,8.24.53V4.78a79.44,79.44,0,0,0-8-.53c-2.38,0-4.38,0-6.13.9a6,6,0,0,0-3.06,5.49c0,3.17,1.69,4.91,4.7,6,1.85.58,3.91,1.16,6.23,1.9,5,1.43,8,4.07,8,9.82a9.54,9.54,0,0,1-4.12,8.29"></path><path class="cls-2" d="M143.06,38.62c-3.07,0-6-1.16-7-4.8a25.63,25.63,0,0,1-.68-6.92V14.34h-4.6V11.22h4.6l.47-8.08h3.12v8.08H147v3.12h-8.08V26.53a22.81,22.81,0,0,0,.42,5.49c.58,2.54,1.95,3.44,4.38,3.44a21.4,21.4,0,0,0,3.86-.53V38a23.67,23.67,0,0,1-4.54.63"></path><path class="cls-2" d="M168.82,37.89l-.21-1.32c-3.11,1-6.23,2-9.29,2a9.41,9.41,0,0,1-7.39-2.95c-1.53-1.9-2-4.38-2-7.24V11.22h3.64V28.65c0,5.07,2.64,6.81,6.71,6.81,2.32,0,4.75-.69,8-1.85V11.22h3.65V37.89Z"></path><path class="cls-2" d="M195.75,37.89l-.16-1.38c-2.9,1-6.23,2.11-9.34,2.11a10.13,10.13,0,0,1-7.45-2.85c-2.48-2.53-3.43-6.23-3.43-11.19,0-5.23,1.85-9.29,4.59-11.51a13.1,13.1,0,0,1,8.35-2.59,20.59,20.59,0,0,1,6.86,1.27V0h3.64V37.89Zm-.58-4.33V15a15,15,0,0,0-6.39-1.43c-6.23,0-9.66,3.28-9.66,11s3.27,10.93,7.92,10.93a24.65,24.65,0,0,0,8.13-1.9"></path><path class="cls-2" d="M204.83,0H209V4.3h-4.17Zm3.64,37.92H205.1V11.22h3.64V37.89Z"></path><path class="cls-2" d="M216.08,35.83c-2.53-2.17-3.8-5.6-3.86-11.25s1.33-9.14,3.86-11.3a13.28,13.28,0,0,1,8.66-2.8,13.11,13.11,0,0,1,8.66,2.8c2.53,2.16,3.85,5.6,3.85,11.25s-1.32,9.13-3.85,11.3a12.84,12.84,0,0,1-8.66,2.79,13,13,0,0,1-8.66-2.79M233.5,24.58c0-7.34-2.64-11-8.76-11-6.34,0-8.71,3.28-8.71,11,0,7.39,2.64,11.09,8.71,11.09,6.34,0,8.76-3.33,8.76-11"></path><path class="cls-2" d="M244.68,3.66a3.72,3.72,0,1,1-7.43,0,3.72,3.72,0,0,1,7.43,0Zm-6.5,0a2.83,2.83,0,0,0,2.82,3,2.8,2.8,0,0,0,2.75-2.92,2.79,2.79,0,1,0-5.57,0ZM240.4,5.6h-.83V1.91A7,7,0,0,1,241,1.8a2.18,2.18,0,0,1,1.26.27,1,1,0,0,1,.35.81.94.94,0,0,1-.75.85v0a1.06,1.06,0,0,1,.66.9,2.8,2.8,0,0,0,.27.92h-.9a2.91,2.91,0,0,1-.29-.9c-.07-.41-.29-.59-.75-.59h-.4Zm0-2.09h.39c.46,0,.84-.16.84-.54s-.24-.57-.77-.57a2,2,0,0,0-.46.05Z">
</path>
</svg>