<svg xmlns="http://www.w3.org/2000/svg" viewBox="0 0 270 48">
<defs>
<style>.cls-1{fill:#871054;}.cls-2{fill:#bcbcbc;}</style>
</defs>
<polygon class="cls-1" points="263.04 5 263.04 1.3 261.61 1.3 261.61 0.91 264.91 0.91 264.91 1.3 263.48 1.3 263.48 5 263.04 5"></polygon>
<path class="cls-2" d="M28.49,20.27c0-9.71-3.73-14.92-11.9-14.92C8.11,5.35,4.53,10,4.53,20.12c0,9.71,3.78,14.92,12,14.92,8.48,0,12-4.65,12-14.77m-1-14.66c3.12,2.81,4.91,7.36,4.91,14.56,0,7.36-1.74,11.85-4.91,14.66-2.91,2.61-7,3.58-11,3.58A16.17,16.17,0,0,1,5.61,34.78C2.44,32,.7,27.42.7,20.17S2.39,8.37,5.61,5.56C8.52,3,12.6,2,16.59,2A16.28,16.28,0,0,1,27.47,5.61"></path><path class="cls-2" d="M47.09,14.29a22.55,22.55,0,0,0-7.86,1.84V34.07a14.81,14.81,0,0,0,6.23,1.43c6,0,9.3-3.22,9.3-10.68s-3.17-10.53-7.67-10.53M35.7,47.15V11.89h3l.16,1.33c2.81-.92,6-2,9-2a9.84,9.84,0,0,1,7.21,2.76c2.4,2.45,3.32,6.08,3.32,10.83,0,5.06-1.74,9-4.45,11.19a12.7,12.7,0,0,1-8.07,2.45,18.83,18.83,0,0,1-6.64-1.23v10Z"></path><path class="cls-2" d="M70,38.41c-3,0-5.78-1.12-6.8-4.65a24.85,24.85,0,0,1-.66-6.69V14.91H58.08v-3h4.45L63,4.08h3v7.81h7.82v3H66v11.8A21.9,21.9,0,0,0,66.41,32c.56,2.46,1.89,3.32,4.24,3.32a20,20,0,0,0,3.73-.51v3a23.83,23.83,0,0,1-4.39.61"></path><path class="cls-2" d="M80.1,37.69H76.83V11.89h3.53v25.8ZM76.58,1h4V5.2h-4Z"></path><path class="cls-2" d="M95.13,38.41a9.86,9.86,0,0,1-7.31-2.91c-2.4-2.51-3.37-6.13-3.37-10.68S85.67,16,88.89,13.53c2.56-1.94,5.42-2.35,8.38-2.35,1.89,0,3.83.15,5.93.36V14.7a45.22,45.22,0,0,0-5.88-.41c-6.54,0-9.25,3.38-9.25,10.58,0,6.39,2.51,10.42,7.87,10.42a28.59,28.59,0,0,0,7.67-1.53v3.07a31.79,31.79,0,0,1-8.48,1.58"></path><path class="cls-2" d="M119.14,37a15.23,15.23,0,0,1-7.26,1.38,70.7,70.7,0,0,1-7.1-.41V34.94c2.46.2,4.91.4,6.9.4a13.7,13.7,0,0,0,5.16-.71,3.74,3.74,0,0,0,2.25-3.73c0-2.2-1.28-3.42-3.63-4.14-1.38-.46-2.81-.82-4.65-1.28-3.88-1.12-6.08-2.86-6.08-7a6.62,6.62,0,0,1,3.17-5.92,13.64,13.64,0,0,1,6.74-1.33c1.84,0,4.09.15,6.44.36v3a59.14,59.14,0,0,0-6.28-.41,12,12,0,0,0-4.6.67,3.48,3.48,0,0,0-2.1,3.52c0,2,1.13,3.12,3.38,3.88,1.32.41,2.7.77,4.54,1.28,4,1.12,6.39,3,6.39,7.36A6.86,6.86,0,0,1,119.14,37"></path><polygon class="cls-1" points="268.83 5 268.83 1.64 268.81 1.64 267.47 5 267.03 5 265.66 1.64 265.65 1.64 265.65 5 265.26 5 265.26 0.91 265.8 0.91 267.27 4.53 267.29 4.53 268.72 0.91 269.26 0.91 269.26 5 268.83 5"></polygon><polygon class="cls-1" points="133.34 37.7 120.72 2.7 124.66 2.7 135.44 33.25 135.64 33.25 146.53 2.7 150.31 2.7 137.64 37.7 133.34 37.7"></polygon><path class="cls-1" d="M156.39,37.69h-3.27V11.89h3.53v25.8ZM152.86,1h4V5.2h-4Z"></path><path class="cls-1" d="M172,13.94c-5.41,0-7.25,3.52-7.61,8.84h15.28c-.21-5.83-2.2-8.84-7.67-8.84m.11,24.47a10.83,10.83,0,0,1-8-2.91c-2.41-2.51-3.38-6.19-3.38-10.73s1.13-8.38,3.84-10.88a12.4,12.4,0,0,1,15.27-.16c2.91,2.61,3.32,6.49,3.32,11.8h-18.8c.1,6.54,2.91,9.76,8.28,9.76a39,39,0,0,0,9.6-1.53v3.07a44.7,44.7,0,0,1-10.16,1.58"></path><polygon class="cls-1" points="209.78 37.7 202.53 16.75 202.38 16.75 195.38 37.7 191.49 37.7 183.42 11.89 187.2 11.89 193.54 33.25 193.64 33.25 200.64 11.89 204.47 11.89 211.62 33.25 211.78 33.25 217.91 11.89 221.59 11.89 213.67 37.7 209.78 37.7"></polygon><path class="cls-1" d="M233.39,13.94c-5.41,0-7.25,3.52-7.61,8.84h15.27c-.2-5.83-2.19-8.84-7.66-8.84m.1,24.47a10.86,10.86,0,0,1-8-2.91c-2.4-2.51-3.37-6.19-3.37-10.73s1.12-8.38,3.83-10.88a12.41,12.41,0,0,1,15.28-.16c2.91,2.61,3.32,6.49,3.32,11.8h-18.8c.1,6.54,2.91,9.76,8.28,9.76a39,39,0,0,0,9.6-1.53v3.07a44.79,44.79,0,0,1-10.17,1.58"></path>
<path class="cls-1" d="M248.87,37.69V11.89h3l.15,1.54c3.78-1.38,5.77-2.25,9-2.25h.36v3.17h-.71c-2.76,0-4.5.61-8.28,1.94v21.4Z"></path>
</svg>