<svg xmlns="http://www.w3.org/2000/svg" viewBox="0 0 274 48">
    <defs>
        <style>.cls-1{fill:#bcbcbc;}.cls-2{fill:#78be43;}</style>
    </defs>
    <g id="opticsbuilder" data-name="opticsbuilder">
        <path class="cls-1" d="M27.36,5.71c3.11,2.8,4.89,7.34,4.89,14.53,0,7.34-1.73,11.83-4.89,14.64-2.91,2.6-7,3.57-11,3.57A16.21,16.21,0,0,1,5.53,34.83C2.37,32,.64,27.48.64,20.24S2.32,8.46,5.53,5.66c2.91-2.6,7-3.57,11-3.57A16.29,16.29,0,0,1,27.36,5.71Zm1,14.63c0-9.69-3.72-14.89-11.88-14.89-8.47,0-12,4.64-12,14.74,0,9.69,3.78,14.89,11.94,14.89C24.86,35.08,28.38,30.44,28.38,20.34Z"></path>
        <path class="cls-1" d="M35.88,47.17V12h3L39,13.31c2.8-.92,6-2,9-2A9.77,9.77,0,0,1,55.2,14c2.4,2.45,3.32,6.07,3.32,10.81,0,5.05-1.73,9-4.44,11.17a12.62,12.62,0,0,1-8,2.45,18.77,18.77,0,0,1-6.63-1.23v10ZM47.25,14.38a22.47,22.47,0,0,0-7.85,1.83v17.9a14.74,14.74,0,0,0,6.22,1.43c6,0,9.28-3.21,9.28-10.66S51.74,14.38,47.25,14.38Z"></path>
        <path class="cls-1" d="M69.38,38.45c-2.95,0-5.76-1.13-6.78-4.64a24.82,24.82,0,0,1-.66-6.68V15H57.5V12h4.44l.46-7.8h3V12h7.8v3h-7.8V26.77a22.35,22.35,0,0,0,.4,5.3c.56,2.45,1.89,3.32,4.24,3.32a20.88,20.88,0,0,0,3.72-.51v2.95A23,23,0,0,1,69.38,38.45Z"></path>
        <path class="cls-1" d="M76.27,5.3V1.12h4V5.3Zm3.52,32.43H76.52V12H80V37.73Z"></path>
        <path class="cls-1" d="M94.07,38.45a9.84,9.84,0,0,1-7.29-2.91c-2.4-2.5-3.37-6.12-3.37-10.66s1.22-8.77,4.44-11.27c2.55-1.94,5.4-2.34,8.36-2.34,1.89,0,3.82.15,5.91.35v3.17a43.12,43.12,0,0,0-5.86-.41c-6.53,0-9.23,3.36-9.23,10.55,0,6.38,2.5,10.41,7.85,10.41a28.77,28.77,0,0,0,7.65-1.53v3.06A31.65,31.65,0,0,1,94.07,38.45Z"></path>
        <path class="cls-1" d="M118.34,37.07a15.15,15.15,0,0,1-7.24,1.38c-2.14,0-4.59-.16-7.09-.41V35c2.45.2,4.9.41,6.89.41a13.66,13.66,0,0,0,5.15-.72A3.72,3.72,0,0,0,118.29,31c0-2.19-1.27-3.42-3.62-4.13-1.38-.46-2.8-.82-4.64-1.28-3.88-1.12-6.07-2.85-6.07-7a6.63,6.63,0,0,1,3.16-5.92,13.73,13.73,0,0,1,6.74-1.32c1.83,0,4.08.15,6.42.35v3a61.56,61.56,0,0,0-6.27-.41,12.09,12.09,0,0,0-4.59.67,3.49,3.49,0,0,0-2.09,3.52c0,2,1.12,3.11,3.36,3.87,1.33.41,2.71.77,4.54,1.28,4,1.12,6.38,3,6.38,7.34A6.85,6.85,0,0,1,118.34,37.07Z"></path>
        <path class="cls-2" d="M147.72,34.83c-2.3,2.19-6,2.9-10.81,2.9H126.1V2.8h9.53c4.64,0,7.86.31,10.35,2.4,2,1.58,2.81,4.08,2.81,6.83a8.13,8.13,0,0,1-4.64,7.8V20c3.72,1.22,6.07,3.67,6.07,8.36A9.16,9.16,0,0,1,147.72,34.83Zm-11.83-29h-6.17v13h6.47c6.48,0,9-2.39,9-6.52C145.17,7.59,142.36,5.86,135.89,5.86Zm1.12,16h-7.24V34.67H137c6.88,0,9.48-2,9.48-6.47S143.69,21.82,137,21.82Z"></path>
        <path class="cls-2" d="M172.61,37.73l-.21-1.27a28.8,28.8,0,0,1-9,2,9.09,9.09,0,0,1-7.14-2.86c-1.48-1.83-1.94-4.23-1.94-7V12h3.52V28.81c0,4.89,2.55,6.58,6.47,6.58,2.25,0,4.59-.67,7.76-1.79V12h3.51V37.73Z"></path>
        <path class="cls-2" d="M181.43,5.3V1.12h4V5.3ZM185,37.73h-3.26V12h3.51V37.73Z"></path>
        <path class="cls-2" d="M191.32,37.73V1.12h3.52V37.73Z"></path>
        <path class="cls-2" d="M217.89,37.73l-.15-1.32c-2.81,1-6,2-9,2a9.81,9.81,0,0,1-7.19-2.76c-2.39-2.44-3.31-6-3.31-10.81,0-5.05,1.78-9,4.43-11.11a12.64,12.64,0,0,1,8.06-2.5,20,20,0,0,1,6.63,1.22V1.12h3.52V37.73Zm-.56-4.18V15.6a14.49,14.49,0,0,0-6.17-1.38c-6,0-9.33,3.17-9.33,10.61s3.16,10.56,7.65,10.56A23.67,23.67,0,0,0,217.33,33.55Z"></path>
        <path class="cls-2" d="M235.49,38.45a10.82,10.82,0,0,1-8-2.91c-2.39-2.5-3.36-6.17-3.36-10.71,0-4.38,1.12-8.36,3.82-10.86a12.39,12.39,0,0,1,15.25-.15c2.91,2.6,3.31,6.47,3.31,11.78H227.79c.1,6.52,2.9,9.74,8.26,9.74a39.38,39.38,0,0,0,9.59-1.53v3.06A44.79,44.79,0,0,1,235.49,38.45ZM235.39,14c-5.41,0-7.25,3.52-7.6,8.82H243C242.83,17,240.84,14,235.39,14Z"></path>
        <path class="cls-2" d="M250.13,37.73V12h3l.16,1.53c3.77-1.38,5.76-2.24,9-2.24h.36v3.16h-.71c-2.76,0-4.49.61-8.27,1.94V37.73Z"></path>
        <polygon class="cls-2" points="262.96 5.21 262.96 1.51 261.53 1.51 261.53 1.12 264.82 1.12 264.82 1.51 263.4 1.51 263.4 5.21 262.96 5.21"></polygon>
        <polygon class="cls-2" points="268.74 5.21 268.74 1.85 268.72 1.85 267.38 5.21 266.94 5.21 265.58 1.85 265.56 1.85 265.56 5.21 265.18 5.21 265.18 1.12 265.71 1.12 267.18 4.74 267.2 4.74 268.63 1.12 269.17 1.12 269.17 5.21 268.74 5.21"></polygon>
    </g>
</svg>