<!-- <svg xmlns="http://www.w3.org/2000/svg" viewBox="0 0 24 24" width="24" height="24">
  <path d="M16.9,15.5c2.4-3.2,2.2-7.7-0.7-10.6c-3.1-3.1-8.1-3.1-11.3,0c-3.1,3.2-3.1,8.3,0,11.4
    c2.9,2.9,7.5,3.1,10.6,0.6c0,0.1,0,0.1,0,0.1l4.2,4.2c0.5,0.4,1.1,0.4,1.5,0c0.4-0.4,0.4-1,0-1.4L16.9,15.5
    C16.9,15.5,16.9,15.5,16.9,15.5L16.9,15.5z M14.8,6.3c2.3,2.3,2.3,6.1,0,8.5c-2.3,2.3-6.1,2.3-8.5,0C4,12.5,4,8.7,6.3,6.3
    C8.7,4,12.5,4,14.8,6.3z"/>
</svg> -->

<svg xmlns="http://www.w3.org/2000/svg" viewBox="0 0 37 40">
  <path d="M35.6 36l-9.8-9.8c4.1-5.4 3.6-13.2-1.3-18.1-5.4-5.4-14.2-5.4-19.7 0-5.4 5.4-5.4 14.2 0 19.7 2.6 2.6 6.1 4.1 9.8 4.1 3 0 5.9-1 8.3-2.8l9.8 9.8c.4.4.9.6 1.4.6s1-.2 1.4-.6c.9-.9.9-2.1.1-2.9zm-20.9-8.2c-2.6 0-5.1-1-7-2.9-3.9-3.9-3.9-10.1 0-14C9.6 9 12.2 8 14.7 8s5.1 1 7 2.9c3.9 3.9 3.9 10.1 0 14-1.9 1.9-4.4 2.9-7 2.9z"></path>
</svg>
