<svg width="32px" height="32px" viewBox="0 0 32 32" version="1.1" xmlns="http://www.w3.org/2000/svg" xmlns:xlink="http://www.w3.org/1999/xlink">
    <title>Linkedin@3x</title>
    <g id="Blog" stroke="none" stroke-width="1" fill="none" fill-rule="evenodd">
        <g id="Blog-Post-UI---R2" transform="translate(-1078.000000, -520.000000)">
            <g id="Linkedin" transform="translate(1078.000000, 520.000000)">
                <rect id="Rectangle" x="0" y="0" width="32" height="32"></rect>
                <circle id="Oval" stroke="#002F6D" stroke-width="2" cx="16" cy="16" r="15"></circle>
                <path d="M9.0941589,13.391355 L11.9291884,13.391355 L11.9291884,23.2717959 L9.0941589,23.2717959 L9.0941589,13.391355 Z M10.4394082,12.1554849 L10.4188831,12.1554849 C9.39262807,12.1554849 8.72727273,11.4001793 8.72727273,10.4437071 C8.72727273,9.46767716 9.41229796,8.72727273 10.4590781,8.72727273 C11.505003,8.72727273 12.1481228,9.4658145 12.1686479,10.4409132 C12.1686479,11.3973853 11.505003,12.1554849 10.4394082,12.1554849 L10.4394082,12.1554849 Z M23.2727273,23.2727273 L20.0579834,23.2727273 L20.0579834,18.1588144 C20.0579834,16.8204985 19.5551184,15.9077987 18.4493287,15.9077987 C17.6035235,15.9077987 17.1331566,16.5234054 16.9142222,17.1185229 C16.8321218,17.3308653 16.84495,17.6279584 16.84495,17.9259828 L16.84495,23.2727273 L13.6601385,23.2727273 C13.6601385,23.2727273 13.7011887,14.2146474 13.6601385,13.391355 L16.84495,13.391355 L16.84495,14.9420133 C17.0330967,14.2640077 18.0507996,13.2963597 19.6748482,13.2963597 C21.6897289,13.2963597 23.2727273,14.718495 23.2727273,17.777902 L23.2727273,23.2727273 L23.2727273,23.2727273 Z" id="Shape" fill="#002F6D"></path>
            </g>
        </g>
    </g>
</svg>