<svg width="32px" height="32px" viewBox="0 0 32 32" version="1.1" xmlns="http://www.w3.org/2000/svg" xmlns:xlink="http://www.w3.org/1999/xlink">
    <title>Email@3x</title>
    <g id="Blog" stroke="none" stroke-width="1" fill="none" fill-rule="evenodd">
        <g id="Blog-Post-UI---R2" transform="translate(-1078.000000, -472.000000)">
            <g id="Email" transform="translate(1078.000000, 472.000000)">
                <rect id="Rectangle" x="0" y="0" width="32" height="32"></rect>
                <circle id="Oval" stroke="#002F6D" stroke-width="2" cx="16" cy="16" r="15"></circle>
                <path d="M24,13.9339099 L24,20.4957341 C24,20.8594909 23.860274,21.1706014 23.5803836,21.4296741 C23.3006027,21.6887469 22.964274,21.8181818 22.5715068,21.8181818 L22.5715068,21.8181818 L9.42860274,21.8181818 C9.03572603,21.8181818 8.69939726,21.6887469 8.41961644,21.4296741 C8.13983562,21.1707028 8,20.8594909 8,20.4957341 L8,20.4957341 L8,13.9339099 C8.26191781,14.2038366 8.56252055,14.4436361 8.90180822,14.6529028 C11.0565479,16.0082165 12.5356712,16.9586909 13.3392877,17.5041233 C13.6785753,17.7355035 13.953863,17.9160632 14.1651507,18.0453967 C14.3764384,18.1749331 14.6577534,18.3071068 15.0088767,18.4421209 C15.36,18.5771349 15.6874521,18.6445912 15.9910137,18.6445912 L15.9910137,18.6445912 L16.0090959,18.6445912 C16.3126575,18.6445912 16.64,18.5771349 16.9911233,18.4421209 C17.3423562,18.3071068 17.6235616,18.1749331 17.8348493,18.0453967 C18.0462466,17.9160632 18.3215342,17.7355035 18.6608219,17.5041233 C19.6725479,16.8264157 21.1548493,15.8759413 23.1070685,14.6529028 C23.4464658,14.438057 23.744,14.1982575 24,13.9339099 L24,13.9339099 Z M22.5713973,10.1818182 C22.958137,10.1818182 23.2930411,10.3112531 23.5757808,10.5702244 C23.8585205,10.8291958 24,11.1405091 24,11.5041645 C24,11.9394351 23.8542466,12.3554326 23.562411,12.7519539 C23.2706849,13.1486781 22.907726,13.4875826 22.4732055,13.7684645 C20.2351781,15.2065516 18.8421918,16.1018438 18.2946849,16.4544424 C18.2351781,16.4930903 18.1086027,16.5769796 17.9151781,16.706516 C17.7217534,16.8360523 17.5610959,16.9408378 17.4330959,17.0206696 C17.3050959,17.1005013 17.1503562,17.1899697 16.9688767,17.2891761 C16.7873973,17.3881796 16.6161096,17.4627366 16.4554521,17.5121369 C16.2946849,17.5618415 16.145863,17.586491 16.0089863,17.586491 L16.0089863,17.586491 L15.9910137,17.586491 C15.854137,17.586491 15.7053151,17.5618415 15.5445479,17.5121369 C15.3838904,17.4627366 15.2127123,17.3882811 15.0311233,17.2891761 C14.8495342,17.1900711 14.6947945,17.1005013 14.5667945,17.0206696 C14.4389041,16.9408378 14.278137,16.8360523 14.0847123,16.706516 C13.8912877,16.577081 13.7648219,16.4930903 13.7053151,16.4544424 C13.1636164,16.1019452 12.3838904,15.5992183 11.3660274,14.946363 C10.3481644,14.2935078 9.73808219,13.9008411 9.53567123,13.7686674 C9.16668493,13.5372872 8.81841096,13.2190761 8.49106849,12.8141354 C8.16372603,12.4091947 8,12.0330625 8,11.6859415 C8,11.2562499 8.12350685,10.8980722 8.37052055,10.6115097 C8.61753425,10.3250487 8.97019178,10.1818182 9.42849315,10.1818182 L9.42849315,10.1818182 Z" id="Shape" fill="#002F6D"></path>
            </g>
        </g>
    </g>
</svg>