<svg width="32px" height="32px" viewBox="0 0 32 32" version="1.1" xmlns="http://www.w3.org/2000/svg" xmlns:xlink="http://www.w3.org/1999/xlink">
    <title>Twitter@3x</title>
    <g id="Blog" stroke="none" stroke-width="1" fill="none" fill-rule="evenodd">
        <g id="Blog-Post-UI---R2" transform="translate(-1078.000000, -424.000000)">
            <g id="Twitter" transform="translate(1078.000000, 424.000000)">
                <rect id="Rectangle" x="0" y="0" width="32" height="32"></rect>
                <circle id="Oval" stroke="#002F6D" stroke-width="2" cx="16" cy="16" r="15"></circle>
                <path d="M22.2008356,12.2514412 C22.8480686,11.8430003 23.344699,11.1953567 23.5777746,10.4238572 C22.971778,10.8029887 22.3021339,11.0771736 21.5876675,11.2256116 C21.0175287,10.5826954 20.2026605,10.1818182 19.3008372,10.1818182 C17.5706991,10.1818182 16.1686597,11.661471 16.1686597,13.4862185 C16.1686597,13.745276 16.1946565,13.9977151 16.2484432,14.2388087 C13.645168,14.1007708 11.3368231,12.7865744 9.79045607,10.7859703 C9.52062623,11.2757212 9.36643775,11.8430003 9.36643775,12.4480979 C9.36643775,13.5940015 9.91954409,14.6056492 10.7604092,15.1994012 C10.2467464,15.1823828 9.76356273,15.0320539 9.34044086,14.786233 L9.34044086,14.826888 C9.34044086,16.4285058 10.4197602,17.7644479 11.8549681,18.0669967 C11.5914133,18.1445248 11.3153084,18.1832889 11.0284461,18.1832889 C10.8267461,18.1832889 10.6295282,18.1634341 10.439482,18.1246701 C10.8375034,19.4369756 11.9948134,20.3937862 13.3663737,20.4193137 C12.2933295,21.30616 10.9423874,21.8337295 9.47490755,21.8337295 C9.22211017,21.8337295 8.97200211,21.8195475 8.72727273,21.7883471 C10.1140726,22.725303 11.7608414,23.2727273 13.5304231,23.2727273 C19.2945621,23.2727273 22.4446686,18.2371804 22.4446686,13.8700773 C22.4446686,13.7263667 22.4428757,13.5836014 22.4366006,13.4427271 C23.0488722,12.9766129 23.5813604,12.3942064 24,11.7314354 C23.4379292,11.9942747 22.8337255,12.1720221 22.2008356,12.2514412 Z" id="Shape" fill="#002F6D"></path>
            </g>
        </g>
    </g>
</svg>