<svg xmlns="http://www.w3.org/2000/svg" width="61" height="80" viewBox="0 0 61 80">
    <path fill="#F77F00"  d="M30.0004718,80.0000363 C29.6269791,80.0000363 29.2510188,79.9170057 28.9067031,79.7461542 C13.0909672,72.0457902 5.68434189e-14,63.7351802 5.68434189e-14,39.9994557 L5.68434189e-14,12.4990474 C5.68434189e-14,11.446794 0.656696702,10.5092157 1.64551587,10.1503841 L29.1459241,0.150130098 C29.6976713,-0.0500433661 30.3031271,-0.0500433661 30.8548742,0.150130098 L58.3552825,10.150239 C59.3441017,10.5090706 60.0007984,11.4466488 60.0007984,12.4989022 L60.0007984,39.9993105 C60.0007984,63.7350351 46.9098312,72.0456451 31.0940953,79.7460091 C30.7499247,79.9170057 30.3739644,80.0000363 30.0004718,80.0000363 L30.0004718,80.0000363 Z M5.00012701,14.2495128 L5.00012701,39.9994557 C5.00012701,58.6497001 13.4181542,66.4841904 30.0004718,74.711915 C46.5827893,66.4841904 55.0008165,58.6497001 55.0008165,39.9994557 L55.0008165,14.2495128 L30.0004718,5.15998273 C30.0004718,5.15998273 5.00012701,14.2495128 5.00012701,14.2495128 Z" id="Shape"></path>
    <polygon id="Path" fill="#F77F00" points="28.2328777 49.9994194 16.4651747 38.2317164 20.0003629 34.6965282 28.2328777 42.9290429 43.9654378 27.1963377 47.500626 30.7315259"></polygon>
</svg>